{"accessors":[{"bufferView":0,"componentType":5126,"count":433,"min":[-0.6001878380775452,-0.7091366648674011,-5.872713565826416],"max":[0.6001878380775452,0.97160404920578,2.4531092643737795],"type":"VEC3","name":"Cube_vertices#0_POSITION"},{"bufferView":0,"byteOffset":12,"componentType":5120,"count":433,"type":"VEC4","name":"Cube_vertices#0_TANGENT"},{"bufferView":0,"byteOffset":16,"componentType":5120,"count":433,"type":"VEC4","name":"Cube_vertices#0_NORMAL"},{"bufferView":0,"byteOffset":20,"componentType":5122,"count":433,"type":"VEC2","name":"Cube_vertices#0_TEXCOORD_0"},{"bufferView":0,"byteOffset":24,"componentType":5122,"count":433,"type":"VEC2","name":"Cube_vertices#0_TEXCOORD_1"},{"bufferView":0,"byteOffset":28,"componentType":5123,"count":433,"type":"VEC4","name":"Cube_vertices#0_COLOR_0"},{"bufferView":1,"componentType":5123,"count":684,"type":"SCALAR","name":"Cube_indices#0"},{"bufferView":0,"byteOffset":15588,"componentType":5126,"count":72,"min":[-4.902190208435059,-0.663201630115509,-1.0],"max":[4.902190208435059,0.08690053224563599,1.0],"type":"VEC3","name":"Cube.001_vertices#0_POSITION"},{"bufferView":0,"byteOffset":15600,"componentType":5120,"count":72,"type":"VEC4","name":"Cube.001_vertices#0_TANGENT"},{"bufferView":0,"byteOffset":15604,"componentType":5120,"count":72,"type":"VEC4","name":"Cube.001_vertices#0_NORMAL"},{"bufferView":0,"byteOffset":15608,"componentType":5122,"count":72,"type":"VEC2","name":"Cube.001_vertices#0_TEXCOORD_0"},{"bufferView":0,"byteOffset":15612,"componentType":5122,"count":72,"type":"VEC2","name":"Cube.001_vertices#0_TEXCOORD_1"},{"bufferView":0,"byteOffset":15616,"componentType":5123,"count":72,"type":"VEC4","name":"Cube.001_vertices#0_COLOR_0"},{"bufferView":1,"byteOffset":1368,"componentType":5123,"count":108,"type":"SCALAR","name":"Cube.001_indices#0"},{"bufferView":0,"byteOffset":18180,"componentType":5126,"count":144,"min":[-1.2860260009765626,-1.3909039497375489,-0.2808762192726135],"max":[1.2860260009765626,-0.4676840007305145,0.2808762192726135],"type":"VEC3","name":"Cube.002_vertices#0_POSITION"},{"bufferView":0,"byteOffset":18192,"componentType":5120,"count":144,"type":"VEC4","name":"Cube.002_vertices#0_TANGENT"},{"bufferView":0,"byteOffset":18196,"componentType":5120,"count":144,"type":"VEC4","name":"Cube.002_vertices#0_NORMAL"},{"bufferView":0,"byteOffset":18200,"componentType":5122,"count":144,"type":"VEC2","name":"Cube.002_vertices#0_TEXCOORD_0"},{"bufferView":0,"byteOffset":18204,"componentType":5122,"count":144,"type":"VEC2","name":"Cube.002_vertices#0_TEXCOORD_1"},{"bufferView":0,"byteOffset":18208,"componentType":5123,"count":144,"type":"VEC4","name":"Cube.002_vertices#0_COLOR_0"},{"bufferView":1,"byteOffset":1584,"componentType":5123,"count":240,"type":"SCALAR","name":"Cube.002_indices#0"},{"bufferView":0,"byteOffset":23364,"componentType":5126,"count":40,"min":[-1.7269641160964966,-0.026448337361216546,-5.7214765548706059],"max":[1.7269641160964966,0.026448337361216546,-4.795266628265381],"type":"VEC3","name":"Cube.004_vertices#0_POSITION"},{"bufferView":0,"byteOffset":23376,"componentType":5120,"count":40,"type":"VEC4","name":"Cube.004_vertices#0_TANGENT"},{"bufferView":0,"byteOffset":23380,"componentType":5120,"count":40,"type":"VEC4","name":"Cube.004_vertices#0_NORMAL"},{"bufferView":0,"byteOffset":23384,"componentType":5122,"count":40,"type":"VEC2","name":"Cube.004_vertices#0_TEXCOORD_0"},{"bufferView":0,"byteOffset":23388,"componentType":5122,"count":40,"type":"VEC2","name":"Cube.004_vertices#0_TEXCOORD_1"},{"bufferView":0,"byteOffset":23392,"componentType":5123,"count":40,"type":"VEC4","name":"Cube.004_vertices#0_COLOR_0"},{"bufferView":1,"byteOffset":2064,"componentType":5123,"count":60,"type":"SCALAR","name":"Cube.004_indices#0"},{"bufferView":0,"byteOffset":24804,"componentType":5126,"count":36,"min":[0.11107325553894043,-0.01947285793721676,-5.749288558959961],"max":[1.3825688362121583,0.01947287656366825,-4.879451274871826],"type":"VEC3","name":"Cube.005_vertices#0_POSITION"},{"bufferView":0,"byteOffset":24816,"componentType":5120,"count":36,"type":"VEC4","name":"Cube.005_vertices#0_TANGENT"},{"bufferView":0,"byteOffset":24820,"componentType":5120,"count":36,"type":"VEC4","name":"Cube.005_vertices#0_NORMAL"},{"bufferView":0,"byteOffset":24824,"componentType":5122,"count":36,"type":"VEC2","name":"Cube.005_vertices#0_TEXCOORD_0"},{"bufferView":0,"byteOffset":24828,"componentType":5122,"count":36,"type":"VEC2","name":"Cube.005_vertices#0_TEXCOORD_1"},{"bufferView":0,"byteOffset":24832,"componentType":5123,"count":36,"type":"VEC4","name":"Cube.005_vertices#0_COLOR_0"},{"bufferView":1,"byteOffset":2184,"componentType":5123,"count":54,"type":"SCALAR","name":"Cube.005_indices#0"},{"bufferView":0,"byteOffset":26100,"componentType":5126,"count":128,"min":[-1.4285976886749268,2.3618593215942385,-0.16426502168178559],"max":[1.4285975694656373,2.8307347297668459,0.16426478326320649],"type":"VEC3","name":"Cylinder_vertices#0_POSITION"},{"bufferView":0,"byteOffset":26112,"componentType":5120,"count":128,"type":"VEC4","name":"Cylinder_vertices#0_TANGENT"},{"bufferView":0,"byteOffset":26116,"componentType":5120,"count":128,"type":"VEC4","name":"Cylinder_vertices#0_NORMAL"},{"bufferView":0,"byteOffset":26120,"componentType":5122,"count":128,"type":"VEC2","name":"Cylinder_vertices#0_TEXCOORD_0"},{"bufferView":0,"byteOffset":26124,"componentType":5122,"count":128,"type":"VEC2","name":"Cylinder_vertices#0_TEXCOORD_1"},{"bufferView":0,"byteOffset":26128,"componentType":5123,"count":128,"type":"VEC4","name":"Cylinder_vertices#0_COLOR_0"},{"bufferView":1,"byteOffset":2292,"componentType":5123,"count":168,"type":"SCALAR","name":"Cylinder_indices#0"},{"bufferView":0,"byteOffset":30708,"componentType":5126,"count":68,"min":[-0.019507523626089097,0.05408519506454468,-4.81093692779541],"max":[0.992482602596283,0.21763622760772706,-4.249184608459473],"type":"VEC3","name":"Cylinder.002_vertices#0_POSITION"},{"bufferView":0,"byteOffset":30720,"componentType":5120,"count":68,"type":"VEC4","name":"Cylinder.002_vertices#0_TANGENT"},{"bufferView":0,"byteOffset":30724,"componentType":5120,"count":68,"type":"VEC4","name":"Cylinder.002_vertices#0_NORMAL"},{"bufferView":0,"byteOffset":30728,"componentType":5122,"count":68,"type":"VEC2","name":"Cylinder.002_vertices#0_TEXCOORD_0"},{"bufferView":0,"byteOffset":30732,"componentType":5122,"count":68,"type":"VEC2","name":"Cylinder.002_vertices#0_TEXCOORD_1"},{"bufferView":0,"byteOffset":30736,"componentType":5123,"count":68,"type":"VEC4","name":"Cylinder.002_vertices#0_COLOR_0"},{"bufferView":1,"byteOffset":2628,"componentType":5123,"count":114,"type":"SCALAR","name":"Cylinder.002_indices#0"}],"asset":{"generator":"Khronos glTF Blender I/O v3.2.40 and Asobo Studio MSFS Blender I/O v1.1.6","version":"2.0","extensions":{"ASOBO_asset_optimized":{"BoundingBoxMax":[4.902190208435059,1.3825688362121583,2.830735206604004],"BoundingBoxMin":[-4.902190208435059,-1.3909039497375489,-5.872713565826416],"MajorVersion":4,"MinorVersion":6,"UseCheckerboardMaterialForMissingTextures":true,"UseOnlyFilenameForImageURI":true},"ASOBO_normal_map_convention":{"tangent_space_convention":"DirectX"}}},"bufferViews":[{"buffer":0,"byteLength":33156,"byteStride":36,"target":34962,"name":"BufferViewVertexND"},{"buffer":0,"byteLength":2856,"byteOffset":33156,"target":34963,"name":"BufferViewIndexU16"}],"materials":[{"name":"glTFValidator_Added_Default_Material"}],"meshes":[{"primitives":[{"attributes":{"COLOR_0":5,"NORMAL":2,"POSITION":0,"TANGENT":1,"TEXCOORD_0":3,"TEXCOORD_1":4},"indices":6,"material":0,"mode":4,"extras":{"ASOBO_primitive":{"PrimitiveCount":228,"UV2Length":0.3535533845424652,"UVLength":0.3535533845424652,"VertexCount":433,"VertexType":"VTX","VertexVersion":2}}}],"name":"Cube"},{"primitives":[{"attributes":{"COLOR_0":12,"NORMAL":9,"POSITION":7,"TANGENT":8,"TEXCOORD_0":10,"TEXCOORD_1":11},"indices":13,"material":0,"mode":4,"extras":{"ASOBO_primitive":{"PrimitiveCount":36,"UV2Length":0.3535533845424652,"UVLength":0.3535533845424652,"VertexCount":72,"VertexType":"VTX","VertexVersion":2}}}],"name":"Cube.001"},{"primitives":[{"attributes":{"COLOR_0":19,"NORMAL":16,"POSITION":14,"TANGENT":15,"TEXCOORD_0":17,"TEXCOORD_1":18},"indices":20,"material":0,"mode":4,"extras":{"ASOBO_primitive":{"PrimitiveCount":80,"UV2Length":0.7071067690849304,"UVLength":0.7071067690849304,"VertexCount":144,"VertexType":"VTX","VertexVersion":2}}}],"name":"Cube.002"},{"primitives":[{"attributes":{"COLOR_0":26,"NORMAL":23,"POSITION":21,"TANGENT":22,"TEXCOORD_0":24,"TEXCOORD_1":25},"indices":27,"material":0,"mode":4,"extras":{"ASOBO_primitive":{"PrimitiveCount":20,"UV2Length":0.3535533845424652,"UVLength":0.3535533845424652,"VertexCount":40,"VertexType":"VTX","VertexVersion":2}}}],"name":"Cube.004"},{"primitives":[{"attributes":{"COLOR_0":33,"NORMAL":30,"POSITION":28,"TANGENT":29,"TEXCOORD_0":31,"TEXCOORD_1":32},"indices":34,"material":0,"mode":4,"extras":{"ASOBO_primitive":{"PrimitiveCount":18,"UV2Length":0.5762215256690979,"UVLength":0.5762215256690979,"VertexCount":36,"VertexType":"VTX","VertexVersion":2}}}],"name":"Cube.005"},{"primitives":[{"attributes":{"COLOR_0":40,"NORMAL":37,"POSITION":35,"TANGENT":36,"TEXCOORD_0":38,"TEXCOORD_1":39},"indices":41,"material":0,"mode":4,"extras":{"ASOBO_primitive":{"PrimitiveCount":56,"UV2Length":0.3174901604652405,"UVLength":0.3174901604652405,"VertexCount":128,"VertexType":"VTX","VertexVersion":2}}}],"name":"Cylinder"},{"primitives":[{"attributes":{"COLOR_0":47,"NORMAL":44,"POSITION":42,"TANGENT":43,"TEXCOORD_0":45,"TEXCOORD_1":46},"indices":48,"material":0,"mode":4,"extras":{"ASOBO_primitive":{"PrimitiveCount":38,"UV2Length":0.7071067690849304,"UVLength":0.7071067690849304,"VertexCount":68,"VertexType":"VTX","VertexVersion":2}}}],"name":"Cylinder.002"}],"nodes":[{"mesh":0,"name":"fuselage"},{"mesh":1,"name":"wings"},{"mesh":2,"name":"front_tires"},{"mesh":3,"name":"rear"},{"rotation":[0.0,0.0,0.7071067094802856,0.7071068286895752],"mesh":4,"name":"rear2"},{"rotation":[0.7071068286895752,0.0,0.0,0.7071068286895752],"mesh":5,"name":"blades"},{"rotation":[0.0,0.0,-0.7071067094802856,0.7071068286895752],"mesh":6,"name":"rear_tire"}],"scene":0,"scenes":[{"nodes":[0,1,2,3,4,5,6],"name":"Scene"}],"extensionsUsed":["ASOBO_normal_map_convention","ASOBO_asset_optimized"],"buffers":[{"byteLength":36012,"uri":"BasicAircraft.bin"}]}
