{
    "asset" : {
        "extensions" : {
            "ASOBO_normal_map_convention" : {
                "tangent_space_convention" : "DirectX"
            }
        },
        "generator" : "Khronos glTF Blender I/O v3.2.40 and Asobo Studio MSFS Blender I/O v1.1.6",
        "version" : "2.0"
    },
    "extensionsUsed" : [
        "ASOBO_normal_map_convention"
    ],
    "scene" : 0,
    "scenes" : [
        {
            "name" : "Scene",
            "nodes" : [
                0,
                1,
                2,
                3,
                4,
                5,
                6
            ]
        }
    ],
    "nodes" : [
        {
            "mesh" : 0,
            "name" : "fuselage"
        },
        {
            "mesh" : 1,
            "name" : "wings"
        },
        {
            "mesh" : 2,
            "name" : "front_tires"
        },
        {
            "mesh" : 3,
            "name" : "rear"
        },
        {
            "mesh" : 4,
            "name" : "rear2",
            "rotation" : [
                0,
                0,
                0.7071067094802856,
                0.7071068286895752
            ]
        },
        {
            "mesh" : 5,
            "name" : "blades",
            "rotation" : [
                0.7071068286895752,
                0,
                0,
                0.7071068286895752
            ]
        },
        {
            "mesh" : 6,
            "name" : "rear_tire",
            "rotation" : [
                0,
                0,
                -0.7071067094802856,
                0.7071068286895752
            ]
        }
    ],
    "meshes" : [
        {
            "name" : "Cube",
            "primitives" : [
                {
                    "attributes" : {
                        "POSITION" : 0,
                        "NORMAL" : 1,
                        "TEXCOORD_0" : 2
                    },
                    "indices" : 3
                }
            ]
        },
        {
            "name" : "Cube.001",
            "primitives" : [
                {
                    "attributes" : {
                        "POSITION" : 4,
                        "NORMAL" : 5,
                        "TEXCOORD_0" : 6
                    },
                    "indices" : 7
                }
            ]
        },
        {
            "name" : "Cube.002",
            "primitives" : [
                {
                    "attributes" : {
                        "POSITION" : 8,
                        "NORMAL" : 9,
                        "TEXCOORD_0" : 10
                    },
                    "indices" : 11
                }
            ]
        },
        {
            "name" : "Cube.004",
            "primitives" : [
                {
                    "attributes" : {
                        "POSITION" : 12,
                        "NORMAL" : 13,
                        "TEXCOORD_0" : 14
                    },
                    "indices" : 15
                }
            ]
        },
        {
            "name" : "Cube.005",
            "primitives" : [
                {
                    "attributes" : {
                        "POSITION" : 16,
                        "NORMAL" : 17,
                        "TEXCOORD_0" : 18
                    },
                    "indices" : 19
                }
            ]
        },
        {
            "name" : "Cylinder",
            "primitives" : [
                {
                    "attributes" : {
                        "POSITION" : 20,
                        "NORMAL" : 21,
                        "TEXCOORD_0" : 22
                    },
                    "indices" : 23
                }
            ]
        },
        {
            "name" : "Cylinder.002",
            "primitives" : [
                {
                    "attributes" : {
                        "POSITION" : 24,
                        "NORMAL" : 25,
                        "TEXCOORD_0" : 26
                    },
                    "indices" : 27
                }
            ]
        }
    ],
    "accessors" : [
        {
            "bufferView" : 0,
            "componentType" : 5126,
            "count" : 391,
            "max" : [
                0.6001878380775452,
                0.97160404920578,
                2.4531092643737793
            ],
            "min" : [
                -0.6001878380775452,
                -0.7091366648674011,
                -5.872713565826416
            ],
            "type" : "VEC3"
        },
        {
            "bufferView" : 1,
            "componentType" : 5126,
            "count" : 391,
            "type" : "VEC3"
        },
        {
            "bufferView" : 2,
            "componentType" : 5126,
            "count" : 391,
            "type" : "VEC2"
        },
        {
            "bufferView" : 3,
            "componentType" : 5123,
            "count" : 684,
            "type" : "SCALAR"
        },
        {
            "bufferView" : 4,
            "componentType" : 5126,
            "count" : 68,
            "max" : [
                4.902190208435059,
                0.08690053224563599,
                1
            ],
            "min" : [
                -4.902190208435059,
                -0.663201630115509,
                -1
            ],
            "type" : "VEC3"
        },
        {
            "bufferView" : 5,
            "componentType" : 5126,
            "count" : 68,
            "type" : "VEC3"
        },
        {
            "bufferView" : 6,
            "componentType" : 5126,
            "count" : 68,
            "type" : "VEC2"
        },
        {
            "bufferView" : 7,
            "componentType" : 5123,
            "count" : 108,
            "type" : "SCALAR"
        },
        {
            "bufferView" : 8,
            "componentType" : 5126,
            "count" : 144,
            "max" : [
                1.2860260009765625,
                -0.4676840007305145,
                0.2808762192726135
            ],
            "min" : [
                -1.2860260009765625,
                -1.3909039497375488,
                -0.2808762192726135
            ],
            "type" : "VEC3"
        },
        {
            "bufferView" : 9,
            "componentType" : 5126,
            "count" : 144,
            "type" : "VEC3"
        },
        {
            "bufferView" : 10,
            "componentType" : 5126,
            "count" : 144,
            "type" : "VEC2"
        },
        {
            "bufferView" : 11,
            "componentType" : 5123,
            "count" : 240,
            "type" : "SCALAR"
        },
        {
            "bufferView" : 12,
            "componentType" : 5126,
            "count" : 32,
            "max" : [
                1.7269641160964966,
                0.026448337361216545,
                -4.795266628265381
            ],
            "min" : [
                -1.7269641160964966,
                -0.026448337361216545,
                -5.7214765548706055
            ],
            "type" : "VEC3"
        },
        {
            "bufferView" : 13,
            "componentType" : 5126,
            "count" : 32,
            "type" : "VEC3"
        },
        {
            "bufferView" : 14,
            "componentType" : 5126,
            "count" : 32,
            "type" : "VEC2"
        },
        {
            "bufferView" : 15,
            "componentType" : 5123,
            "count" : 60,
            "type" : "SCALAR"
        },
        {
            "bufferView" : 16,
            "componentType" : 5126,
            "count" : 32,
            "max" : [
                1.3825688362121582,
                0.01947287656366825,
                -4.879451274871826
            ],
            "min" : [
                0.11107325553894043,
                -0.01947285793721676,
                -5.749288558959961
            ],
            "type" : "VEC3"
        },
        {
            "bufferView" : 17,
            "componentType" : 5126,
            "count" : 32,
            "type" : "VEC3"
        },
        {
            "bufferView" : 18,
            "componentType" : 5126,
            "count" : 32,
            "type" : "VEC2"
        },
        {
            "bufferView" : 19,
            "componentType" : 5123,
            "count" : 54,
            "type" : "SCALAR"
        },
        {
            "bufferView" : 20,
            "componentType" : 5126,
            "count" : 110,
            "max" : [
                1.4285975694656372,
                2.8307347297668457,
                0.16426478326320648
            ],
            "min" : [
                -1.4285976886749268,
                2.3618593215942383,
                -0.16426502168178558
            ],
            "type" : "VEC3"
        },
        {
            "bufferView" : 21,
            "componentType" : 5126,
            "count" : 110,
            "type" : "VEC3"
        },
        {
            "bufferView" : 22,
            "componentType" : 5126,
            "count" : 110,
            "type" : "VEC2"
        },
        {
            "bufferView" : 23,
            "componentType" : 5123,
            "count" : 168,
            "type" : "SCALAR"
        },
        {
            "bufferView" : 24,
            "componentType" : 5126,
            "count" : 68,
            "max" : [
                0.992482602596283,
                0.21763622760772705,
                -4.249184608459473
            ],
            "min" : [
                -0.019507523626089096,
                0.05408519506454468,
                -4.81093692779541
            ],
            "type" : "VEC3"
        },
        {
            "bufferView" : 25,
            "componentType" : 5126,
            "count" : 68,
            "type" : "VEC3"
        },
        {
            "bufferView" : 26,
            "componentType" : 5126,
            "count" : 68,
            "type" : "VEC2"
        },
        {
            "bufferView" : 27,
            "componentType" : 5123,
            "count" : 114,
            "type" : "SCALAR"
        }
    ],
    "bufferViews" : [
        {
            "buffer" : 0,
            "byteLength" : 4692,
            "byteOffset" : 0
        },
        {
            "buffer" : 0,
            "byteLength" : 4692,
            "byteOffset" : 4692
        },
        {
            "buffer" : 0,
            "byteLength" : 3128,
            "byteOffset" : 9384
        },
        {
            "buffer" : 0,
            "byteLength" : 1368,
            "byteOffset" : 12512
        },
        {
            "buffer" : 0,
            "byteLength" : 816,
            "byteOffset" : 13880
        },
        {
            "buffer" : 0,
            "byteLength" : 816,
            "byteOffset" : 14696
        },
        {
            "buffer" : 0,
            "byteLength" : 544,
            "byteOffset" : 15512
        },
        {
            "buffer" : 0,
            "byteLength" : 216,
            "byteOffset" : 16056
        },
        {
            "buffer" : 0,
            "byteLength" : 1728,
            "byteOffset" : 16272
        },
        {
            "buffer" : 0,
            "byteLength" : 1728,
            "byteOffset" : 18000
        },
        {
            "buffer" : 0,
            "byteLength" : 1152,
            "byteOffset" : 19728
        },
        {
            "buffer" : 0,
            "byteLength" : 480,
            "byteOffset" : 20880
        },
        {
            "buffer" : 0,
            "byteLength" : 384,
            "byteOffset" : 21360
        },
        {
            "buffer" : 0,
            "byteLength" : 384,
            "byteOffset" : 21744
        },
        {
            "buffer" : 0,
            "byteLength" : 256,
            "byteOffset" : 22128
        },
        {
            "buffer" : 0,
            "byteLength" : 120,
            "byteOffset" : 22384
        },
        {
            "buffer" : 0,
            "byteLength" : 384,
            "byteOffset" : 22504
        },
        {
            "buffer" : 0,
            "byteLength" : 384,
            "byteOffset" : 22888
        },
        {
            "buffer" : 0,
            "byteLength" : 256,
            "byteOffset" : 23272
        },
        {
            "buffer" : 0,
            "byteLength" : 108,
            "byteOffset" : 23528
        },
        {
            "buffer" : 0,
            "byteLength" : 1320,
            "byteOffset" : 23636
        },
        {
            "buffer" : 0,
            "byteLength" : 1320,
            "byteOffset" : 24956
        },
        {
            "buffer" : 0,
            "byteLength" : 880,
            "byteOffset" : 26276
        },
        {
            "buffer" : 0,
            "byteLength" : 336,
            "byteOffset" : 27156
        },
        {
            "buffer" : 0,
            "byteLength" : 816,
            "byteOffset" : 27492
        },
        {
            "buffer" : 0,
            "byteLength" : 816,
            "byteOffset" : 28308
        },
        {
            "buffer" : 0,
            "byteLength" : 544,
            "byteOffset" : 29124
        },
        {
            "buffer" : 0,
            "byteLength" : 228,
            "byteOffset" : 29668
        }
    ],
    "buffers" : [
        {
            "byteLength" : 29896,
            "uri" : "BasicAircraft.bin"
        }
    ]
}
